<mxfile host="app.diagrams.net" modified="2023-09-16T00:07:18.157Z" agent="Mozilla/5.0 (Windows NT 10.0; Win64; x64) AppleWebKit/537.36 (KHTML, like Gecko) Chrome/117.0.0.0 Safari/537.36" etag="VR3xqT1Fdv9fgTaAzGst" version="21.7.4" type="github">
  <diagram id="R2lEEEUBdFMjLlhIrx00" name="Page-1">
    <mxGraphModel dx="1687" dy="2020" grid="1" gridSize="10" guides="1" tooltips="1" connect="1" arrows="1" fold="1" page="1" pageScale="1" pageWidth="850" pageHeight="1100" math="0" shadow="0" extFonts="Permanent Marker^https://fonts.googleapis.com/css?family=Permanent+Marker">
      <root>
        <mxCell id="0" />
        <mxCell id="1" parent="0" />
        <mxCell id="C-vyLk0tnHw3VtMMgP7b-1" value="" style="edgeStyle=entityRelationEdgeStyle;endArrow=ERzeroToMany;startArrow=ERone;endFill=1;startFill=0;labelBackgroundColor=none;strokeColor=#0B4D6A;fontColor=default;" parent="1" source="C-vyLk0tnHw3VtMMgP7b-24" edge="1">
          <mxGeometry width="100" height="100" relative="1" as="geometry">
            <mxPoint x="340" y="720" as="sourcePoint" />
            <mxPoint x="450" y="195" as="targetPoint" />
          </mxGeometry>
        </mxCell>
        <mxCell id="C-vyLk0tnHw3VtMMgP7b-12" value="" style="edgeStyle=entityRelationEdgeStyle;endArrow=ERzeroToMany;startArrow=ERone;endFill=1;startFill=0;labelBackgroundColor=none;strokeColor=#0B4D6A;fontColor=default;" parent="1" source="C-vyLk0tnHw3VtMMgP7b-3" edge="1">
          <mxGeometry width="100" height="100" relative="1" as="geometry">
            <mxPoint x="400" y="180" as="sourcePoint" />
            <mxPoint x="700" y="355" as="targetPoint" />
          </mxGeometry>
        </mxCell>
        <mxCell id="8hUAjTVh9uJ7KwZJBaUJ-1" value="COMPANY" style="swimlane;whiteSpace=wrap;html=1;startSize=30;labelBackgroundColor=none;fillColor=#09555B;strokeColor=#BAC8D3;fontColor=#EEEEEE;" vertex="1" parent="1">
          <mxGeometry x="620" y="-790" width="200" height="120" as="geometry" />
        </mxCell>
        <mxCell id="8hUAjTVh9uJ7KwZJBaUJ-2" value="Text" style="text;html=1;align=center;verticalAlign=middle;resizable=0;points=[];autosize=1;strokeColor=none;fillColor=none;labelBackgroundColor=none;fontColor=#EEEEEE;" vertex="1" parent="8hUAjTVh9uJ7KwZJBaUJ-1">
          <mxGeometry y="30" width="50" height="30" as="geometry" />
        </mxCell>
        <mxCell id="8hUAjTVh9uJ7KwZJBaUJ-3" value="CompanyID" style="rounded=0;whiteSpace=wrap;html=1;labelBackgroundColor=none;fillColor=#09555B;strokeColor=#BAC8D3;fontColor=#EEEEEE;" vertex="1" parent="8hUAjTVh9uJ7KwZJBaUJ-1">
          <mxGeometry y="30" width="200" height="30" as="geometry" />
        </mxCell>
        <mxCell id="8hUAjTVh9uJ7KwZJBaUJ-4" value="Name" style="rounded=0;whiteSpace=wrap;html=1;labelBackgroundColor=none;fillColor=#09555B;strokeColor=#BAC8D3;fontColor=#EEEEEE;" vertex="1" parent="8hUAjTVh9uJ7KwZJBaUJ-1">
          <mxGeometry y="60" width="200" height="30" as="geometry" />
        </mxCell>
        <mxCell id="8hUAjTVh9uJ7KwZJBaUJ-5" value="Location" style="rounded=0;whiteSpace=wrap;html=1;labelBackgroundColor=none;fillColor=#09555B;strokeColor=#BAC8D3;fontColor=#EEEEEE;" vertex="1" parent="8hUAjTVh9uJ7KwZJBaUJ-1">
          <mxGeometry y="90" width="200" height="30" as="geometry" />
        </mxCell>
        <mxCell id="8hUAjTVh9uJ7KwZJBaUJ-91" value="PK" style="rounded=0;whiteSpace=wrap;html=1;labelBackgroundColor=none;fillColor=#09555B;strokeColor=#BAC8D3;fontColor=#EEEEEE;" vertex="1" parent="8hUAjTVh9uJ7KwZJBaUJ-1">
          <mxGeometry y="30" width="30" height="30" as="geometry" />
        </mxCell>
        <mxCell id="8hUAjTVh9uJ7KwZJBaUJ-10" value="HeadOfCompany" style="rounded=0;whiteSpace=wrap;html=1;labelBackgroundColor=none;fillColor=#09555B;strokeColor=#BAC8D3;fontColor=#EEEEEE;" vertex="1" parent="1">
          <mxGeometry x="620" y="-670" width="200" height="30" as="geometry" />
        </mxCell>
        <mxCell id="8hUAjTVh9uJ7KwZJBaUJ-11" value="DEPARTMENT" style="swimlane;whiteSpace=wrap;html=1;startSize=30;labelBackgroundColor=none;fillColor=#09555B;strokeColor=#BAC8D3;fontColor=#EEEEEE;" vertex="1" parent="1">
          <mxGeometry x="280" y="-560" width="200" height="120" as="geometry" />
        </mxCell>
        <mxCell id="8hUAjTVh9uJ7KwZJBaUJ-12" value="Text" style="text;html=1;align=center;verticalAlign=middle;resizable=0;points=[];autosize=1;strokeColor=none;fillColor=none;labelBackgroundColor=none;fontColor=#EEEEEE;" vertex="1" parent="8hUAjTVh9uJ7KwZJBaUJ-11">
          <mxGeometry y="30" width="50" height="30" as="geometry" />
        </mxCell>
        <mxCell id="8hUAjTVh9uJ7KwZJBaUJ-13" value="DepartmentID" style="rounded=0;whiteSpace=wrap;html=1;labelBackgroundColor=none;fillColor=#09555B;strokeColor=#BAC8D3;fontColor=#EEEEEE;" vertex="1" parent="8hUAjTVh9uJ7KwZJBaUJ-11">
          <mxGeometry y="30" width="200" height="30" as="geometry" />
        </mxCell>
        <mxCell id="8hUAjTVh9uJ7KwZJBaUJ-14" value="Name" style="rounded=0;whiteSpace=wrap;html=1;labelBackgroundColor=none;fillColor=#09555B;strokeColor=#BAC8D3;fontColor=#EEEEEE;" vertex="1" parent="8hUAjTVh9uJ7KwZJBaUJ-11">
          <mxGeometry y="60" width="200" height="30" as="geometry" />
        </mxCell>
        <mxCell id="8hUAjTVh9uJ7KwZJBaUJ-15" value="Location" style="rounded=0;whiteSpace=wrap;html=1;labelBackgroundColor=none;fillColor=#09555B;strokeColor=#BAC8D3;fontColor=#EEEEEE;" vertex="1" parent="8hUAjTVh9uJ7KwZJBaUJ-11">
          <mxGeometry y="90" width="200" height="30" as="geometry" />
        </mxCell>
        <mxCell id="8hUAjTVh9uJ7KwZJBaUJ-92" value="PK" style="rounded=0;whiteSpace=wrap;html=1;labelBackgroundColor=none;fillColor=#09555B;strokeColor=#BAC8D3;fontColor=#EEEEEE;" vertex="1" parent="8hUAjTVh9uJ7KwZJBaUJ-11">
          <mxGeometry y="30" width="30" height="30" as="geometry" />
        </mxCell>
        <mxCell id="8hUAjTVh9uJ7KwZJBaUJ-17" value="EmployeeID" style="rounded=0;whiteSpace=wrap;html=1;labelBackgroundColor=none;fillColor=#09555B;strokeColor=#BAC8D3;fontColor=#EEEEEE;" vertex="1" parent="1">
          <mxGeometry x="280" y="-440" width="200" height="30" as="geometry" />
        </mxCell>
        <mxCell id="8hUAjTVh9uJ7KwZJBaUJ-32" value="REQUEST" style="swimlane;whiteSpace=wrap;html=1;startSize=30;labelBackgroundColor=none;fillColor=#09555B;strokeColor=#BAC8D3;fontColor=#EEEEEE;" vertex="1" parent="1">
          <mxGeometry x="620" y="-410" width="200" height="120" as="geometry" />
        </mxCell>
        <mxCell id="8hUAjTVh9uJ7KwZJBaUJ-33" value="Text" style="text;html=1;align=center;verticalAlign=middle;resizable=0;points=[];autosize=1;strokeColor=none;fillColor=none;labelBackgroundColor=none;fontColor=#EEEEEE;" vertex="1" parent="8hUAjTVh9uJ7KwZJBaUJ-32">
          <mxGeometry y="30" width="50" height="30" as="geometry" />
        </mxCell>
        <mxCell id="8hUAjTVh9uJ7KwZJBaUJ-34" value="RequestID " style="rounded=0;whiteSpace=wrap;html=1;labelBackgroundColor=none;fillColor=#09555B;strokeColor=#BAC8D3;fontColor=#EEEEEE;" vertex="1" parent="8hUAjTVh9uJ7KwZJBaUJ-32">
          <mxGeometry y="30" width="200" height="30" as="geometry" />
        </mxCell>
        <mxCell id="8hUAjTVh9uJ7KwZJBaUJ-35" value="EmployeeID " style="rounded=0;whiteSpace=wrap;html=1;labelBackgroundColor=none;fillColor=#09555B;strokeColor=#BAC8D3;fontColor=#EEEEEE;" vertex="1" parent="8hUAjTVh9uJ7KwZJBaUJ-32">
          <mxGeometry y="60" width="200" height="30" as="geometry" />
        </mxCell>
        <mxCell id="8hUAjTVh9uJ7KwZJBaUJ-36" value="VehicleID " style="rounded=0;whiteSpace=wrap;html=1;labelBackgroundColor=none;fillColor=#09555B;strokeColor=#BAC8D3;fontColor=#EEEEEE;" vertex="1" parent="8hUAjTVh9uJ7KwZJBaUJ-32">
          <mxGeometry y="90" width="200" height="30" as="geometry" />
        </mxCell>
        <mxCell id="8hUAjTVh9uJ7KwZJBaUJ-95" value="PK" style="rounded=0;whiteSpace=wrap;html=1;labelBackgroundColor=none;fillColor=#09555B;strokeColor=#BAC8D3;fontColor=#EEEEEE;" vertex="1" parent="8hUAjTVh9uJ7KwZJBaUJ-32">
          <mxGeometry y="30" width="30" height="30" as="geometry" />
        </mxCell>
        <mxCell id="8hUAjTVh9uJ7KwZJBaUJ-105" value="FK" style="rounded=0;whiteSpace=wrap;html=1;labelBackgroundColor=none;fillColor=#09555B;strokeColor=#BAC8D3;fontColor=#EEEEEE;" vertex="1" parent="8hUAjTVh9uJ7KwZJBaUJ-32">
          <mxGeometry y="60" width="30" height="30" as="geometry" />
        </mxCell>
        <mxCell id="8hUAjTVh9uJ7KwZJBaUJ-104" value="FK" style="rounded=0;whiteSpace=wrap;html=1;labelBackgroundColor=none;fillColor=#09555B;strokeColor=#BAC8D3;fontColor=#EEEEEE;" vertex="1" parent="8hUAjTVh9uJ7KwZJBaUJ-32">
          <mxGeometry y="90" width="30" height="30" as="geometry" />
        </mxCell>
        <mxCell id="8hUAjTVh9uJ7KwZJBaUJ-37" value="RequestDate" style="rounded=0;whiteSpace=wrap;html=1;labelBackgroundColor=none;fillColor=#09555B;strokeColor=#BAC8D3;fontColor=#EEEEEE;" vertex="1" parent="1">
          <mxGeometry x="620" y="-290" width="200" height="30" as="geometry" />
        </mxCell>
        <mxCell id="8hUAjTVh9uJ7KwZJBaUJ-38" value="Reason" style="rounded=0;whiteSpace=wrap;html=1;labelBackgroundColor=none;fillColor=#09555B;strokeColor=#BAC8D3;fontColor=#EEEEEE;" vertex="1" parent="1">
          <mxGeometry x="620" y="-260" width="200" height="30" as="geometry" />
        </mxCell>
        <mxCell id="8hUAjTVh9uJ7KwZJBaUJ-39" value="StartDate" style="rounded=0;whiteSpace=wrap;html=1;labelBackgroundColor=none;fillColor=#09555B;strokeColor=#BAC8D3;fontColor=#EEEEEE;" vertex="1" parent="1">
          <mxGeometry x="620" y="-230" width="200" height="30" as="geometry" />
        </mxCell>
        <mxCell id="8hUAjTVh9uJ7KwZJBaUJ-40" value="EndDate" style="rounded=0;whiteSpace=wrap;html=1;labelBackgroundColor=none;fillColor=#09555B;strokeColor=#BAC8D3;fontColor=#EEEEEE;" vertex="1" parent="1">
          <mxGeometry x="620" y="-200" width="200" height="30" as="geometry" />
        </mxCell>
        <mxCell id="8hUAjTVh9uJ7KwZJBaUJ-41" value="Status" style="rounded=0;whiteSpace=wrap;html=1;labelBackgroundColor=none;fillColor=#09555B;strokeColor=#BAC8D3;fontColor=#EEEEEE;" vertex="1" parent="1">
          <mxGeometry x="620" y="-170" width="200" height="30" as="geometry" />
        </mxCell>
        <mxCell id="8hUAjTVh9uJ7KwZJBaUJ-43" value="TRIP" style="swimlane;whiteSpace=wrap;html=1;startSize=30;labelBackgroundColor=none;fillColor=#09555B;strokeColor=#BAC8D3;fontColor=#EEEEEE;" vertex="1" parent="1">
          <mxGeometry x="920" y="-680" width="200" height="120" as="geometry" />
        </mxCell>
        <mxCell id="8hUAjTVh9uJ7KwZJBaUJ-44" value="Text" style="text;html=1;align=center;verticalAlign=middle;resizable=0;points=[];autosize=1;strokeColor=none;fillColor=none;labelBackgroundColor=none;fontColor=#EEEEEE;" vertex="1" parent="8hUAjTVh9uJ7KwZJBaUJ-43">
          <mxGeometry y="30" width="50" height="30" as="geometry" />
        </mxCell>
        <mxCell id="8hUAjTVh9uJ7KwZJBaUJ-45" value="TripID" style="rounded=0;whiteSpace=wrap;html=1;labelBackgroundColor=none;fillColor=#09555B;strokeColor=#BAC8D3;fontColor=#EEEEEE;" vertex="1" parent="8hUAjTVh9uJ7KwZJBaUJ-43">
          <mxGeometry y="30" width="200" height="30" as="geometry" />
        </mxCell>
        <mxCell id="8hUAjTVh9uJ7KwZJBaUJ-46" value="VehicleID " style="rounded=0;whiteSpace=wrap;html=1;labelBackgroundColor=none;fillColor=#09555B;strokeColor=#BAC8D3;fontColor=#EEEEEE;" vertex="1" parent="8hUAjTVh9uJ7KwZJBaUJ-43">
          <mxGeometry y="60" width="200" height="30" as="geometry" />
        </mxCell>
        <mxCell id="8hUAjTVh9uJ7KwZJBaUJ-47" value="EmployeeID" style="rounded=0;whiteSpace=wrap;html=1;labelBackgroundColor=none;fillColor=#09555B;strokeColor=#BAC8D3;fontColor=#EEEEEE;" vertex="1" parent="8hUAjTVh9uJ7KwZJBaUJ-43">
          <mxGeometry y="90" width="200" height="30" as="geometry" />
        </mxCell>
        <mxCell id="8hUAjTVh9uJ7KwZJBaUJ-96" value="PK" style="rounded=0;whiteSpace=wrap;html=1;labelBackgroundColor=none;fillColor=#09555B;strokeColor=#BAC8D3;fontColor=#EEEEEE;" vertex="1" parent="8hUAjTVh9uJ7KwZJBaUJ-43">
          <mxGeometry y="30" width="30" height="30" as="geometry" />
        </mxCell>
        <mxCell id="8hUAjTVh9uJ7KwZJBaUJ-108" value="FK" style="rounded=0;whiteSpace=wrap;html=1;labelBackgroundColor=none;fillColor=#09555B;strokeColor=#BAC8D3;fontColor=#EEEEEE;" vertex="1" parent="8hUAjTVh9uJ7KwZJBaUJ-43">
          <mxGeometry y="60" width="30" height="30" as="geometry" />
        </mxCell>
        <mxCell id="8hUAjTVh9uJ7KwZJBaUJ-109" value="FK" style="rounded=0;whiteSpace=wrap;html=1;labelBackgroundColor=none;fillColor=#09555B;strokeColor=#BAC8D3;fontColor=#EEEEEE;" vertex="1" parent="8hUAjTVh9uJ7KwZJBaUJ-43">
          <mxGeometry y="90" width="30" height="30" as="geometry" />
        </mxCell>
        <mxCell id="8hUAjTVh9uJ7KwZJBaUJ-48" value="StartDate" style="rounded=0;whiteSpace=wrap;html=1;labelBackgroundColor=none;fillColor=#09555B;strokeColor=#BAC8D3;fontColor=#EEEEEE;" vertex="1" parent="1">
          <mxGeometry x="920" y="-560" width="200" height="30" as="geometry" />
        </mxCell>
        <mxCell id="8hUAjTVh9uJ7KwZJBaUJ-49" value="EndDate" style="rounded=0;whiteSpace=wrap;html=1;labelBackgroundColor=none;fillColor=#09555B;strokeColor=#BAC8D3;fontColor=#EEEEEE;" vertex="1" parent="1">
          <mxGeometry x="920" y="-530" width="200" height="30" as="geometry" />
        </mxCell>
        <mxCell id="8hUAjTVh9uJ7KwZJBaUJ-50" value="Distance" style="rounded=0;whiteSpace=wrap;html=1;labelBackgroundColor=none;fillColor=#09555B;strokeColor=#BAC8D3;fontColor=#EEEEEE;" vertex="1" parent="1">
          <mxGeometry x="920" y="-500" width="200" height="30" as="geometry" />
        </mxCell>
        <mxCell id="8hUAjTVh9uJ7KwZJBaUJ-51" value="LOCATION" style="swimlane;whiteSpace=wrap;html=1;startSize=30;labelBackgroundColor=none;fillColor=#09555B;strokeColor=#BAC8D3;fontColor=#EEEEEE;" vertex="1" parent="1">
          <mxGeometry x="920" y="-150" width="200" height="120" as="geometry" />
        </mxCell>
        <mxCell id="8hUAjTVh9uJ7KwZJBaUJ-52" value="Text" style="text;html=1;align=center;verticalAlign=middle;resizable=0;points=[];autosize=1;strokeColor=none;fillColor=none;labelBackgroundColor=none;fontColor=#EEEEEE;" vertex="1" parent="8hUAjTVh9uJ7KwZJBaUJ-51">
          <mxGeometry x="-40" y="30" width="50" height="30" as="geometry" />
        </mxCell>
        <mxCell id="8hUAjTVh9uJ7KwZJBaUJ-53" value="LocationID " style="rounded=0;whiteSpace=wrap;html=1;labelBackgroundColor=none;fillColor=#09555B;strokeColor=#BAC8D3;fontColor=#EEEEEE;" vertex="1" parent="8hUAjTVh9uJ7KwZJBaUJ-51">
          <mxGeometry y="30" width="200" height="30" as="geometry" />
        </mxCell>
        <mxCell id="8hUAjTVh9uJ7KwZJBaUJ-54" value="TripID" style="rounded=0;whiteSpace=wrap;html=1;labelBackgroundColor=none;fillColor=#09555B;strokeColor=#BAC8D3;fontColor=#EEEEEE;" vertex="1" parent="8hUAjTVh9uJ7KwZJBaUJ-51">
          <mxGeometry y="60" width="200" height="30" as="geometry" />
        </mxCell>
        <mxCell id="8hUAjTVh9uJ7KwZJBaUJ-55" value="Timestamp" style="rounded=0;whiteSpace=wrap;html=1;labelBackgroundColor=none;fillColor=#09555B;strokeColor=#BAC8D3;fontColor=#EEEEEE;" vertex="1" parent="8hUAjTVh9uJ7KwZJBaUJ-51">
          <mxGeometry y="90" width="200" height="30" as="geometry" />
        </mxCell>
        <mxCell id="8hUAjTVh9uJ7KwZJBaUJ-97" value="PK" style="rounded=0;whiteSpace=wrap;html=1;labelBackgroundColor=none;fillColor=#09555B;strokeColor=#BAC8D3;fontColor=#EEEEEE;" vertex="1" parent="8hUAjTVh9uJ7KwZJBaUJ-51">
          <mxGeometry y="30" width="30" height="30" as="geometry" />
        </mxCell>
        <mxCell id="8hUAjTVh9uJ7KwZJBaUJ-110" value="FK" style="rounded=0;whiteSpace=wrap;html=1;labelBackgroundColor=none;fillColor=#09555B;strokeColor=#BAC8D3;fontColor=#EEEEEE;" vertex="1" parent="8hUAjTVh9uJ7KwZJBaUJ-51">
          <mxGeometry y="60" width="30" height="30" as="geometry" />
        </mxCell>
        <mxCell id="8hUAjTVh9uJ7KwZJBaUJ-56" value="Latitude" style="rounded=0;whiteSpace=wrap;html=1;labelBackgroundColor=none;fillColor=#09555B;strokeColor=#BAC8D3;fontColor=#EEEEEE;" vertex="1" parent="1">
          <mxGeometry x="920" y="-30" width="200" height="30" as="geometry" />
        </mxCell>
        <mxCell id="8hUAjTVh9uJ7KwZJBaUJ-57" value="Longitude" style="rounded=0;whiteSpace=wrap;html=1;labelBackgroundColor=none;fillColor=#09555B;strokeColor=#BAC8D3;fontColor=#EEEEEE;" vertex="1" parent="1">
          <mxGeometry x="920" width="200" height="30" as="geometry" />
        </mxCell>
        <mxCell id="8hUAjTVh9uJ7KwZJBaUJ-75" value="VEHICLE" style="swimlane;whiteSpace=wrap;html=1;startSize=30;labelBackgroundColor=none;fillColor=#09555B;strokeColor=#BAC8D3;fontColor=#EEEEEE;" vertex="1" parent="1">
          <mxGeometry x="920" y="-350" width="200" height="120" as="geometry" />
        </mxCell>
        <mxCell id="8hUAjTVh9uJ7KwZJBaUJ-76" value="Text" style="text;html=1;align=center;verticalAlign=middle;resizable=0;points=[];autosize=1;strokeColor=none;fillColor=none;labelBackgroundColor=none;fontColor=#EEEEEE;" vertex="1" parent="8hUAjTVh9uJ7KwZJBaUJ-75">
          <mxGeometry y="30" width="50" height="30" as="geometry" />
        </mxCell>
        <mxCell id="8hUAjTVh9uJ7KwZJBaUJ-77" value="VehicleID" style="rounded=0;whiteSpace=wrap;html=1;labelBackgroundColor=none;fillColor=#09555B;strokeColor=#BAC8D3;fontColor=#EEEEEE;" vertex="1" parent="8hUAjTVh9uJ7KwZJBaUJ-75">
          <mxGeometry y="30" width="200" height="30" as="geometry" />
        </mxCell>
        <mxCell id="8hUAjTVh9uJ7KwZJBaUJ-78" value="FleetType" style="rounded=0;whiteSpace=wrap;html=1;labelBackgroundColor=none;fillColor=#09555B;strokeColor=#BAC8D3;fontColor=#EEEEEE;" vertex="1" parent="8hUAjTVh9uJ7KwZJBaUJ-75">
          <mxGeometry y="60" width="200" height="30" as="geometry" />
        </mxCell>
        <mxCell id="8hUAjTVh9uJ7KwZJBaUJ-79" value="Model" style="rounded=0;whiteSpace=wrap;html=1;labelBackgroundColor=none;fillColor=#09555B;strokeColor=#BAC8D3;fontColor=#EEEEEE;" vertex="1" parent="8hUAjTVh9uJ7KwZJBaUJ-75">
          <mxGeometry y="90" width="200" height="30" as="geometry" />
        </mxCell>
        <mxCell id="8hUAjTVh9uJ7KwZJBaUJ-94" value="PK" style="rounded=0;whiteSpace=wrap;html=1;labelBackgroundColor=none;fillColor=#09555B;strokeColor=#BAC8D3;fontColor=#EEEEEE;" vertex="1" parent="8hUAjTVh9uJ7KwZJBaUJ-75">
          <mxGeometry y="30" width="30" height="30" as="geometry" />
        </mxCell>
        <mxCell id="8hUAjTVh9uJ7KwZJBaUJ-29" value="NumberOfVehicles" style="rounded=0;whiteSpace=wrap;html=1;labelBackgroundColor=none;fillColor=#09555B;strokeColor=#BAC8D3;fontColor=#EEEEEE;" vertex="1" parent="1">
          <mxGeometry x="920" y="-230" width="200" height="30" as="geometry" />
        </mxCell>
        <mxCell id="8hUAjTVh9uJ7KwZJBaUJ-100" value="FK" style="rounded=0;whiteSpace=wrap;html=1;labelBackgroundColor=none;fillColor=#09555B;strokeColor=#BAC8D3;fontColor=#EEEEEE;" vertex="1" parent="1">
          <mxGeometry x="280" y="-440" width="30" height="30" as="geometry" />
        </mxCell>
        <mxCell id="8hUAjTVh9uJ7KwZJBaUJ-125" value="EXPERIMENT" style="swimlane;whiteSpace=wrap;html=1;startSize=30;labelBackgroundColor=none;fillColor=#09555B;strokeColor=#BAC8D3;fontColor=#EEEEEE;" vertex="1" parent="1">
          <mxGeometry x="320" y="-140" width="200" height="120" as="geometry" />
        </mxCell>
        <mxCell id="8hUAjTVh9uJ7KwZJBaUJ-126" value="Text" style="text;html=1;align=center;verticalAlign=middle;resizable=0;points=[];autosize=1;strokeColor=none;fillColor=none;labelBackgroundColor=none;fontColor=#EEEEEE;" vertex="1" parent="8hUAjTVh9uJ7KwZJBaUJ-125">
          <mxGeometry y="30" width="50" height="30" as="geometry" />
        </mxCell>
        <mxCell id="8hUAjTVh9uJ7KwZJBaUJ-127" value="ExperimentID " style="rounded=0;whiteSpace=wrap;html=1;labelBackgroundColor=none;fillColor=#09555B;strokeColor=#BAC8D3;fontColor=#EEEEEE;" vertex="1" parent="8hUAjTVh9uJ7KwZJBaUJ-125">
          <mxGeometry y="30" width="200" height="30" as="geometry" />
        </mxCell>
        <mxCell id="8hUAjTVh9uJ7KwZJBaUJ-128" value="Name" style="rounded=0;whiteSpace=wrap;html=1;labelBackgroundColor=none;fillColor=#09555B;strokeColor=#BAC8D3;fontColor=#EEEEEE;" vertex="1" parent="8hUAjTVh9uJ7KwZJBaUJ-125">
          <mxGeometry y="60" width="200" height="30" as="geometry" />
        </mxCell>
        <mxCell id="8hUAjTVh9uJ7KwZJBaUJ-129" value="Discription" style="rounded=0;whiteSpace=wrap;html=1;labelBackgroundColor=none;fillColor=#09555B;strokeColor=#BAC8D3;fontColor=#EEEEEE;" vertex="1" parent="8hUAjTVh9uJ7KwZJBaUJ-125">
          <mxGeometry y="90" width="200" height="30" as="geometry" />
        </mxCell>
        <mxCell id="8hUAjTVh9uJ7KwZJBaUJ-130" value="PK" style="rounded=0;whiteSpace=wrap;html=1;labelBackgroundColor=none;fillColor=#09555B;strokeColor=#BAC8D3;fontColor=#EEEEEE;" vertex="1" parent="8hUAjTVh9uJ7KwZJBaUJ-125">
          <mxGeometry y="30" width="30" height="30" as="geometry" />
        </mxCell>
        <mxCell id="8hUAjTVh9uJ7KwZJBaUJ-131" value="PARTICIPANT" style="swimlane;whiteSpace=wrap;html=1;startSize=30;labelBackgroundColor=none;fillColor=#09555B;strokeColor=#BAC8D3;fontColor=#EEEEEE;" vertex="1" parent="1">
          <mxGeometry x="320" y="-365" width="200" height="120" as="geometry" />
        </mxCell>
        <mxCell id="8hUAjTVh9uJ7KwZJBaUJ-132" value="Text" style="text;html=1;align=center;verticalAlign=middle;resizable=0;points=[];autosize=1;strokeColor=none;fillColor=none;labelBackgroundColor=none;fontColor=#EEEEEE;" vertex="1" parent="8hUAjTVh9uJ7KwZJBaUJ-131">
          <mxGeometry y="30" width="50" height="30" as="geometry" />
        </mxCell>
        <mxCell id="8hUAjTVh9uJ7KwZJBaUJ-133" value="ParticipantID" style="rounded=0;whiteSpace=wrap;html=1;labelBackgroundColor=none;fillColor=#09555B;strokeColor=#BAC8D3;fontColor=#EEEEEE;" vertex="1" parent="8hUAjTVh9uJ7KwZJBaUJ-131">
          <mxGeometry y="30" width="200" height="30" as="geometry" />
        </mxCell>
        <mxCell id="8hUAjTVh9uJ7KwZJBaUJ-134" value="EmployeeID" style="rounded=0;whiteSpace=wrap;html=1;labelBackgroundColor=none;fillColor=#09555B;strokeColor=#BAC8D3;fontColor=#EEEEEE;" vertex="1" parent="8hUAjTVh9uJ7KwZJBaUJ-131">
          <mxGeometry y="60" width="200" height="30" as="geometry" />
        </mxCell>
        <mxCell id="8hUAjTVh9uJ7KwZJBaUJ-135" value="ExperimentID" style="rounded=0;whiteSpace=wrap;html=1;labelBackgroundColor=none;fillColor=#09555B;strokeColor=#BAC8D3;fontColor=#EEEEEE;" vertex="1" parent="8hUAjTVh9uJ7KwZJBaUJ-131">
          <mxGeometry y="90" width="200" height="30" as="geometry" />
        </mxCell>
        <mxCell id="8hUAjTVh9uJ7KwZJBaUJ-136" value="PK" style="rounded=0;whiteSpace=wrap;html=1;labelBackgroundColor=none;fillColor=#09555B;strokeColor=#BAC8D3;fontColor=#EEEEEE;" vertex="1" parent="8hUAjTVh9uJ7KwZJBaUJ-131">
          <mxGeometry y="30" width="30" height="30" as="geometry" />
        </mxCell>
        <mxCell id="8hUAjTVh9uJ7KwZJBaUJ-137" value="FK" style="rounded=0;whiteSpace=wrap;html=1;labelBackgroundColor=none;fillColor=#09555B;strokeColor=#BAC8D3;fontColor=#EEEEEE;" vertex="1" parent="8hUAjTVh9uJ7KwZJBaUJ-131">
          <mxGeometry y="60" width="30" height="30" as="geometry" />
        </mxCell>
        <mxCell id="8hUAjTVh9uJ7KwZJBaUJ-138" value="FK" style="rounded=0;whiteSpace=wrap;html=1;labelBackgroundColor=none;fillColor=#09555B;strokeColor=#BAC8D3;fontColor=#EEEEEE;" vertex="1" parent="8hUAjTVh9uJ7KwZJBaUJ-131">
          <mxGeometry y="90" width="30" height="30" as="geometry" />
        </mxCell>
        <mxCell id="8hUAjTVh9uJ7KwZJBaUJ-139" value="Role" style="rounded=0;whiteSpace=wrap;html=1;labelBackgroundColor=none;fillColor=#09555B;strokeColor=#BAC8D3;fontColor=#EEEEEE;" vertex="1" parent="1">
          <mxGeometry x="320" y="-245" width="200" height="30" as="geometry" />
        </mxCell>
        <mxCell id="8hUAjTVh9uJ7KwZJBaUJ-140" value="Responsibility" style="rounded=0;whiteSpace=wrap;html=1;labelBackgroundColor=none;fillColor=#09555B;strokeColor=#BAC8D3;fontColor=#EEEEEE;" vertex="1" parent="1">
          <mxGeometry x="320" y="-215" width="200" height="30" as="geometry" />
        </mxCell>
        <mxCell id="8hUAjTVh9uJ7KwZJBaUJ-141" value="" style="fontSize=12;html=1;endArrow=ERzeroToMany;startArrow=ERmandOne;rounded=0;labelBackgroundColor=none;strokeColor=#0B4D6A;fontColor=default;entryX=1;entryY=0.5;entryDx=0;entryDy=0;exitX=1;exitY=0.5;exitDx=0;exitDy=0;" edge="1" parent="1" source="8hUAjTVh9uJ7KwZJBaUJ-127" target="8hUAjTVh9uJ7KwZJBaUJ-135">
          <mxGeometry width="100" height="100" relative="1" as="geometry">
            <mxPoint x="580" y="-40" as="sourcePoint" />
            <mxPoint x="580" y="-244" as="targetPoint" />
            <Array as="points">
              <mxPoint x="550" y="-95" />
              <mxPoint x="550" y="-130" />
              <mxPoint x="550" y="-260" />
            </Array>
          </mxGeometry>
        </mxCell>
        <mxCell id="8hUAjTVh9uJ7KwZJBaUJ-142" value="for" style="edgeLabel;align=center;verticalAlign=middle;resizable=0;points=[];fontColor=default;labelBorderColor=default;" vertex="1" connectable="0" parent="8hUAjTVh9uJ7KwZJBaUJ-141">
          <mxGeometry x="0.0001" relative="1" as="geometry">
            <mxPoint as="offset" />
          </mxGeometry>
        </mxCell>
        <mxCell id="8hUAjTVh9uJ7KwZJBaUJ-143" value="EMPLOYEE" style="swimlane;whiteSpace=wrap;html=1;startSize=30;labelBackgroundColor=none;fillColor=#09555B;strokeColor=#BAC8D3;fontColor=#EEEEEE;" vertex="1" parent="1">
          <mxGeometry x="620" y="-620" width="200" height="120" as="geometry" />
        </mxCell>
        <mxCell id="8hUAjTVh9uJ7KwZJBaUJ-144" value="Text" style="text;html=1;align=center;verticalAlign=middle;resizable=0;points=[];autosize=1;strokeColor=none;fillColor=none;labelBackgroundColor=none;fontColor=#EEEEEE;" vertex="1" parent="8hUAjTVh9uJ7KwZJBaUJ-143">
          <mxGeometry y="30" width="50" height="30" as="geometry" />
        </mxCell>
        <mxCell id="8hUAjTVh9uJ7KwZJBaUJ-145" value="EmployeeID" style="rounded=0;whiteSpace=wrap;html=1;labelBackgroundColor=none;fillColor=#09555B;strokeColor=#BAC8D3;fontColor=#EEEEEE;" vertex="1" parent="8hUAjTVh9uJ7KwZJBaUJ-143">
          <mxGeometry y="30" width="200" height="30" as="geometry" />
        </mxCell>
        <mxCell id="8hUAjTVh9uJ7KwZJBaUJ-146" value="Name" style="rounded=0;whiteSpace=wrap;html=1;labelBackgroundColor=none;fillColor=#09555B;strokeColor=#BAC8D3;fontColor=#EEEEEE;" vertex="1" parent="8hUAjTVh9uJ7KwZJBaUJ-143">
          <mxGeometry y="60" width="200" height="30" as="geometry" />
        </mxCell>
        <mxCell id="8hUAjTVh9uJ7KwZJBaUJ-147" value="DepartmentID " style="rounded=0;whiteSpace=wrap;html=1;labelBackgroundColor=none;fillColor=#09555B;strokeColor=#BAC8D3;fontColor=#EEEEEE;" vertex="1" parent="8hUAjTVh9uJ7KwZJBaUJ-143">
          <mxGeometry y="90" width="200" height="30" as="geometry" />
        </mxCell>
        <mxCell id="8hUAjTVh9uJ7KwZJBaUJ-148" value="PK" style="rounded=0;whiteSpace=wrap;html=1;labelBackgroundColor=none;fillColor=#09555B;strokeColor=#BAC8D3;fontColor=#EEEEEE;" vertex="1" parent="8hUAjTVh9uJ7KwZJBaUJ-143">
          <mxGeometry y="30" width="30" height="30" as="geometry" />
        </mxCell>
        <mxCell id="8hUAjTVh9uJ7KwZJBaUJ-149" value="FK" style="rounded=0;whiteSpace=wrap;html=1;labelBackgroundColor=none;fillColor=#09555B;strokeColor=#BAC8D3;fontColor=#EEEEEE;" vertex="1" parent="8hUAjTVh9uJ7KwZJBaUJ-143">
          <mxGeometry y="90" width="30" height="30" as="geometry" />
        </mxCell>
        <mxCell id="8hUAjTVh9uJ7KwZJBaUJ-150" value="" style="fontSize=12;html=1;endArrow=ERzeroToMany;startArrow=ERmandOne;rounded=0;labelBackgroundColor=none;strokeColor=#0B4D6A;fontColor=default;exitX=0;exitY=0.5;exitDx=0;exitDy=0;entryX=0;entryY=0.5;entryDx=0;entryDy=0;" edge="1" parent="1" source="8hUAjTVh9uJ7KwZJBaUJ-148" target="8hUAjTVh9uJ7KwZJBaUJ-137">
          <mxGeometry width="100" height="100" relative="1" as="geometry">
            <mxPoint x="650" y="-575" as="sourcePoint" />
            <mxPoint x="330" y="-245" as="targetPoint" />
            <Array as="points">
              <mxPoint x="210" y="-575" />
              <mxPoint x="210" y="-290" />
            </Array>
          </mxGeometry>
        </mxCell>
        <mxCell id="8hUAjTVh9uJ7KwZJBaUJ-158" value="&lt;font color=&quot;#121212&quot;&gt;Is&lt;/font&gt;" style="edgeLabel;html=1;align=center;verticalAlign=middle;resizable=0;points=[];fontColor=#EEEEEE;labelBorderColor=default;" vertex="1" connectable="0" parent="8hUAjTVh9uJ7KwZJBaUJ-150">
          <mxGeometry x="0.08" y="1" relative="1" as="geometry">
            <mxPoint x="-1" y="185" as="offset" />
          </mxGeometry>
        </mxCell>
        <mxCell id="8hUAjTVh9uJ7KwZJBaUJ-153" value="" style="fontSize=12;html=1;endArrow=ERzeroToMany;startArrow=ERmandOne;rounded=0;labelBackgroundColor=none;strokeColor=#0B4D6A;fontColor=default;exitX=1;exitY=0.5;exitDx=0;exitDy=0;" edge="1" parent="1" source="8hUAjTVh9uJ7KwZJBaUJ-13">
          <mxGeometry width="100" height="100" relative="1" as="geometry">
            <mxPoint x="520" y="-515.5" as="sourcePoint" />
            <mxPoint x="620" y="-515" as="targetPoint" />
          </mxGeometry>
        </mxCell>
        <mxCell id="8hUAjTVh9uJ7KwZJBaUJ-155" value="&lt;font color=&quot;#0a0a0a&quot;&gt;can have&lt;/font&gt;" style="edgeLabel;html=1;align=center;verticalAlign=middle;resizable=0;points=[];fontColor=#EEEEEE;labelBorderColor=default;" vertex="1" connectable="0" parent="8hUAjTVh9uJ7KwZJBaUJ-153">
          <mxGeometry x="-0.0881" y="-1" relative="1" as="geometry">
            <mxPoint x="-15" y="-1" as="offset" />
          </mxGeometry>
        </mxCell>
        <mxCell id="8hUAjTVh9uJ7KwZJBaUJ-154" value="" style="fontSize=12;html=1;endArrow=ERzeroToOne;endFill=1;rounded=0;strokeColor=#0B4D6A;exitX=0;exitY=0.5;exitDx=0;exitDy=0;" edge="1" parent="1" source="8hUAjTVh9uJ7KwZJBaUJ-148">
          <mxGeometry width="100" height="100" relative="1" as="geometry">
            <mxPoint x="640" y="-575" as="sourcePoint" />
            <mxPoint x="280" y="-420" as="targetPoint" />
            <Array as="points">
              <mxPoint x="550" y="-575" />
              <mxPoint x="210" y="-575" />
              <mxPoint x="210" y="-420" />
            </Array>
          </mxGeometry>
        </mxCell>
        <mxCell id="8hUAjTVh9uJ7KwZJBaUJ-157" value="&lt;font color=&quot;#0a0a0a&quot;&gt;Heads&lt;/font&gt;" style="edgeLabel;html=1;align=center;verticalAlign=middle;resizable=0;points=[];fontColor=#EEEEEE;labelBorderColor=default;" vertex="1" connectable="0" parent="1">
          <mxGeometry x="249.99666666666678" y="-430" as="geometry">
            <mxPoint x="-11" y="9" as="offset" />
          </mxGeometry>
        </mxCell>
        <mxCell id="8hUAjTVh9uJ7KwZJBaUJ-159" value="" style="fontSize=12;html=1;endArrow=ERzeroToMany;startArrow=ERmandOne;rounded=0;labelBackgroundColor=none;strokeColor=#0B4D6A;fontColor=default;exitX=1;exitY=0.5;exitDx=0;exitDy=0;" edge="1" parent="1" source="8hUAjTVh9uJ7KwZJBaUJ-145">
          <mxGeometry width="100" height="100" relative="1" as="geometry">
            <mxPoint x="960" y="-565" as="sourcePoint" />
            <mxPoint x="820" y="-340" as="targetPoint" />
            <Array as="points">
              <mxPoint x="850" y="-575" />
              <mxPoint x="850" y="-340" />
            </Array>
          </mxGeometry>
        </mxCell>
        <mxCell id="8hUAjTVh9uJ7KwZJBaUJ-160" value="&lt;font color=&quot;#121212&quot;&gt;Requests&lt;/font&gt;" style="edgeLabel;html=1;align=center;verticalAlign=middle;resizable=0;points=[];fontColor=#EEEEEE;labelBorderColor=default;" vertex="1" connectable="0" parent="8hUAjTVh9uJ7KwZJBaUJ-159">
          <mxGeometry x="0.08" y="1" relative="1" as="geometry">
            <mxPoint as="offset" />
          </mxGeometry>
        </mxCell>
        <mxCell id="8hUAjTVh9uJ7KwZJBaUJ-161" value="" style="fontSize=12;html=1;endArrow=ERzeroToMany;startArrow=ERmandOne;rounded=0;labelBackgroundColor=none;strokeColor=#0B4D6A;fontColor=default;exitX=1;exitY=0.5;exitDx=0;exitDy=0;entryX=0;entryY=0.5;entryDx=0;entryDy=0;" edge="1" parent="1" source="8hUAjTVh9uJ7KwZJBaUJ-145" target="8hUAjTVh9uJ7KwZJBaUJ-109">
          <mxGeometry width="100" height="100" relative="1" as="geometry">
            <mxPoint x="950" y="-650" as="sourcePoint" />
            <mxPoint x="830" y="-320" as="targetPoint" />
          </mxGeometry>
        </mxCell>
        <mxCell id="8hUAjTVh9uJ7KwZJBaUJ-162" value="&lt;font color=&quot;#121212&quot;&gt;Drives&lt;/font&gt;" style="edgeLabel;html=1;align=center;verticalAlign=middle;resizable=0;points=[];fontColor=#EEEEEE;labelBorderColor=default;" vertex="1" connectable="0" parent="8hUAjTVh9uJ7KwZJBaUJ-161">
          <mxGeometry x="0.08" y="1" relative="1" as="geometry">
            <mxPoint x="6" y="1" as="offset" />
          </mxGeometry>
        </mxCell>
        <mxCell id="8hUAjTVh9uJ7KwZJBaUJ-163" value="" style="fontSize=12;html=1;endArrow=ERzeroToMany;startArrow=ERmandOne;rounded=0;labelBackgroundColor=none;strokeColor=#0B4D6A;fontColor=default;entryX=1;entryY=0.5;entryDx=0;entryDy=0;exitX=0.992;exitY=0.333;exitDx=0;exitDy=0;exitPerimeter=0;" edge="1" parent="1" source="8hUAjTVh9uJ7KwZJBaUJ-77" target="8hUAjTVh9uJ7KwZJBaUJ-46">
          <mxGeometry width="100" height="100" relative="1" as="geometry">
            <mxPoint x="1130" y="-300" as="sourcePoint" />
            <mxPoint x="1180" y="-440" as="targetPoint" />
            <Array as="points">
              <mxPoint x="1150" y="-310" />
              <mxPoint x="1150" y="-605" />
            </Array>
          </mxGeometry>
        </mxCell>
        <mxCell id="8hUAjTVh9uJ7KwZJBaUJ-164" value="&lt;font color=&quot;#121212&quot;&gt;Has&lt;/font&gt;" style="edgeLabel;html=1;align=center;verticalAlign=middle;resizable=0;points=[];fontColor=#EEEEEE;labelBorderColor=default;" vertex="1" connectable="0" parent="8hUAjTVh9uJ7KwZJBaUJ-163">
          <mxGeometry x="0.08" y="1" relative="1" as="geometry">
            <mxPoint as="offset" />
          </mxGeometry>
        </mxCell>
        <mxCell id="8hUAjTVh9uJ7KwZJBaUJ-165" value="" style="fontSize=12;html=1;endArrow=ERzeroToMany;startArrow=ERmandOne;rounded=0;labelBackgroundColor=none;strokeColor=#0B4D6A;fontColor=default;exitX=0;exitY=0.5;exitDx=0;exitDy=0;entryX=1;entryY=0.5;entryDx=0;entryDy=0;" edge="1" parent="1" source="8hUAjTVh9uJ7KwZJBaUJ-94" target="8hUAjTVh9uJ7KwZJBaUJ-36">
          <mxGeometry width="100" height="100" relative="1" as="geometry">
            <mxPoint x="830" y="-565" as="sourcePoint" />
            <mxPoint x="950" y="-565" as="targetPoint" />
          </mxGeometry>
        </mxCell>
        <mxCell id="8hUAjTVh9uJ7KwZJBaUJ-166" value="&lt;font color=&quot;#121212&quot;&gt;for&lt;/font&gt;" style="edgeLabel;html=1;align=center;verticalAlign=middle;resizable=0;points=[];fontColor=#EEEEEE;labelBorderColor=default;" vertex="1" connectable="0" parent="8hUAjTVh9uJ7KwZJBaUJ-165">
          <mxGeometry x="0.08" y="1" relative="1" as="geometry">
            <mxPoint x="14" y="-1" as="offset" />
          </mxGeometry>
        </mxCell>
        <mxCell id="8hUAjTVh9uJ7KwZJBaUJ-169" value="CompanyId" style="rounded=0;whiteSpace=wrap;html=1;labelBackgroundColor=none;fillColor=#09555B;strokeColor=#BAC8D3;fontColor=#EEEEEE;" vertex="1" parent="1">
          <mxGeometry x="620" y="-500" width="200" height="30" as="geometry" />
        </mxCell>
        <mxCell id="8hUAjTVh9uJ7KwZJBaUJ-170" value="FK" style="rounded=0;whiteSpace=wrap;html=1;labelBackgroundColor=none;fillColor=#09555B;strokeColor=#BAC8D3;fontColor=#EEEEEE;" vertex="1" parent="1">
          <mxGeometry x="620" y="-500" width="30" height="30" as="geometry" />
        </mxCell>
        <mxCell id="8hUAjTVh9uJ7KwZJBaUJ-171" value="" style="fontSize=12;html=1;endArrow=ERzeroToMany;startArrow=ERmandOne;rounded=0;labelBackgroundColor=none;strokeColor=#0B4D6A;fontColor=default;exitX=1;exitY=0.5;exitDx=0;exitDy=0;entryX=1;entryY=0.5;entryDx=0;entryDy=0;" edge="1" parent="1" source="8hUAjTVh9uJ7KwZJBaUJ-3" target="8hUAjTVh9uJ7KwZJBaUJ-169">
          <mxGeometry width="100" height="100" relative="1" as="geometry">
            <mxPoint x="580" y="-740" as="sourcePoint" />
            <mxPoint x="460" y="-740" as="targetPoint" />
            <Array as="points">
              <mxPoint x="860" y="-745" />
              <mxPoint x="860" y="-485" />
            </Array>
          </mxGeometry>
        </mxCell>
        <mxCell id="8hUAjTVh9uJ7KwZJBaUJ-173" value="" style="fontSize=12;html=1;endArrow=ERzeroToMany;startArrow=ERmandOne;rounded=0;labelBackgroundColor=none;strokeColor=#0B4D6A;fontColor=default;entryX=1;entryY=0.75;entryDx=0;entryDy=0;" edge="1" parent="1" target="8hUAjTVh9uJ7KwZJBaUJ-54">
          <mxGeometry width="100" height="100" relative="1" as="geometry">
            <mxPoint x="1120" y="-640" as="sourcePoint" />
            <mxPoint x="1130" y="-595" as="targetPoint" />
            <Array as="points">
              <mxPoint x="1180" y="-640" />
              <mxPoint x="1180" y="-67" />
            </Array>
          </mxGeometry>
        </mxCell>
        <mxCell id="8hUAjTVh9uJ7KwZJBaUJ-174" value="&lt;font color=&quot;#121212&quot;&gt;Has&lt;/font&gt;" style="edgeLabel;html=1;align=center;verticalAlign=middle;resizable=0;points=[];fontColor=#EEEEEE;labelBorderColor=default;" vertex="1" connectable="0" parent="8hUAjTVh9uJ7KwZJBaUJ-173">
          <mxGeometry x="0.08" y="1" relative="1" as="geometry">
            <mxPoint as="offset" />
          </mxGeometry>
        </mxCell>
        <mxCell id="8hUAjTVh9uJ7KwZJBaUJ-175" value="" style="fontSize=12;html=1;endArrow=ERzeroToMany;startArrow=ERmandOne;rounded=0;labelBackgroundColor=none;strokeColor=#0B4D6A;fontColor=default;entryX=0;entryY=0.5;entryDx=0;entryDy=0;" edge="1" parent="1" target="8hUAjTVh9uJ7KwZJBaUJ-105">
          <mxGeometry width="100" height="100" relative="1" as="geometry">
            <mxPoint x="620" y="-575" as="sourcePoint" />
            <mxPoint x="830" y="-330" as="targetPoint" />
            <Array as="points">
              <mxPoint x="590" y="-575" />
              <mxPoint x="590" y="-335" />
            </Array>
          </mxGeometry>
        </mxCell>
        <mxCell id="8hUAjTVh9uJ7KwZJBaUJ-176" value="&lt;font color=&quot;#121212&quot;&gt;Approves&lt;/font&gt;" style="edgeLabel;html=1;align=center;verticalAlign=middle;resizable=0;points=[];fontColor=#EEEEEE;labelBorderColor=default;" vertex="1" connectable="0" parent="8hUAjTVh9uJ7KwZJBaUJ-175">
          <mxGeometry x="0.08" y="1" relative="1" as="geometry">
            <mxPoint as="offset" />
          </mxGeometry>
        </mxCell>
      </root>
    </mxGraphModel>
  </diagram>
</mxfile>
